<svg width="16" height="16" viewBox="0 0 16 16" fill="none" xmlns="http://www.w3.org/2000/svg">
<path d="M8.79829 14.9549L14.9645 8.78873C15.2525 8.49887 15.4141 8.10686 15.4141 7.69825C15.4141 7.28963 15.2525 6.89762 14.9645 6.60776L8.79829 0.441667C8.50832 0.156904 8.11763 -0.00182464 7.71123 1.58282e-05C7.30482 0.00185629 6.91558 0.164117 6.6282 0.451494C6.34083 0.73887 6.17856 1.12811 6.17672 1.53452C6.17488 1.94092 6.33361 2.33161 6.61838 2.62158L10.1533 6.15662H1.54167C1.13279 6.15662 0.740663 6.31905 0.451544 6.60817C0.162425 6.89729 0 7.28942 0 7.69829C0 8.10717 0.162425 8.4993 0.451544 8.78841C0.740663 9.07753 1.13279 9.23996 1.54167 9.23996H10.1533L6.61828 12.775C6.33221 13.0647 6.17237 13.4558 6.17366 13.863C6.17495 14.2701 6.33726 14.6602 6.62517 14.9481C6.91307 15.236 7.30318 15.3983 7.71033 15.3996C8.11748 15.4009 8.50859 15.241 8.79829 14.9549Z" fill="#ED017F"/>
</svg>
